<svg width="161" height="19" viewBox="0 0 161 19" fill="none" xmlns="http://www.w3.org/2000/svg">
<g clip-path="url(#clip0_248_17)">
<g clip-path="url(#clip1_248_17)">
<path d="M109.868 5.18182V6.71591H104.505V5.18182H109.868ZM105.943 2.82955H107.854V12.1172C107.854 12.4879 107.91 12.767 108.021 12.9545C108.131 13.1378 108.274 13.2635 108.449 13.3317C108.628 13.3956 108.822 13.4276 109.031 13.4276C109.184 13.4276 109.318 13.4169 109.433 13.3956C109.548 13.3743 109.638 13.3572 109.702 13.3445L110.047 14.9233C109.936 14.9659 109.778 15.0085 109.574 15.0511C109.369 15.098 109.114 15.1236 108.807 15.1278C108.304 15.1364 107.835 15.0469 107.401 14.8594C106.966 14.6719 106.614 14.3821 106.346 13.9901C106.077 13.598 105.943 13.1058 105.943 12.5135V2.82955ZM111.982 15V5.18182H113.829V6.74148H113.932C114.111 6.21307 114.426 5.79758 114.878 5.49503C115.334 5.18821 115.849 5.0348 116.425 5.0348C116.544 5.0348 116.684 5.03906 116.846 5.04759C117.013 5.05611 117.143 5.06676 117.236 5.07955V6.90767C117.16 6.88636 117.023 6.86293 116.827 6.83736C116.631 6.80753 116.435 6.79261 116.239 6.79261C115.787 6.79261 115.385 6.88849 115.031 7.08026C114.682 7.26776 114.405 7.52983 114.2 7.86648C113.996 8.19886 113.893 8.57812 113.893 9.00426V15H111.982ZM121.66 15.2173C121.037 15.2173 120.475 15.1023 119.972 14.8722C119.469 14.6378 119.071 14.299 118.777 13.8558C118.487 13.4126 118.342 12.8693 118.342 12.2259C118.342 11.6719 118.449 11.2159 118.662 10.858C118.875 10.5 119.162 10.2166 119.525 10.0078C119.887 9.79901 120.292 9.64134 120.739 9.5348C121.187 9.42827 121.643 9.3473 122.107 9.2919C122.695 9.22372 123.172 9.16832 123.539 9.12571C123.905 9.07884 124.172 9.00426 124.338 8.90199C124.504 8.79972 124.587 8.63352 124.587 8.40341V8.35866C124.587 7.80043 124.43 7.3679 124.114 7.06108C123.803 6.75426 123.339 6.60085 122.721 6.60085C122.077 6.60085 121.57 6.74361 121.199 7.02912C120.833 7.31037 120.579 7.62358 120.439 7.96875L118.643 7.55966C118.856 6.96307 119.167 6.48153 119.576 6.11506C119.989 5.74432 120.464 5.47585 121.001 5.30966C121.538 5.1392 122.103 5.05398 122.695 5.05398C123.087 5.05398 123.503 5.10085 123.942 5.1946C124.385 5.28409 124.798 5.45028 125.182 5.69318C125.569 5.93608 125.887 6.28338 126.134 6.73509C126.381 7.18253 126.505 7.7642 126.505 8.48011V15H124.638V13.6577H124.562C124.438 13.9048 124.253 14.1477 124.006 14.3864C123.758 14.625 123.441 14.8232 123.053 14.9808C122.665 15.1385 122.201 15.2173 121.66 15.2173ZM122.075 13.6832C122.604 13.6832 123.055 13.5788 123.43 13.37C123.809 13.1612 124.097 12.8885 124.293 12.5518C124.493 12.2109 124.594 11.8466 124.594 11.4588V10.1932C124.525 10.2614 124.393 10.3253 124.197 10.3849C124.006 10.4403 123.786 10.4893 123.539 10.532C123.292 10.5703 123.051 10.6065 122.817 10.6406C122.582 10.6705 122.386 10.696 122.229 10.7173C121.858 10.7642 121.519 10.843 121.212 10.9538C120.91 11.0646 120.667 11.2244 120.483 11.4332C120.305 11.6378 120.215 11.9105 120.215 12.2514C120.215 12.7244 120.39 13.0824 120.739 13.3253C121.089 13.5639 121.534 13.6832 122.075 13.6832ZM129.05 15V5.18182H130.962V15H129.05ZM130.016 3.6669C129.683 3.6669 129.398 3.55611 129.159 3.33452C128.925 3.10866 128.808 2.8402 128.808 2.52912C128.808 2.21378 128.925 1.94531 129.159 1.72372C129.398 1.49787 129.683 1.38494 130.016 1.38494C130.348 1.38494 130.631 1.49787 130.866 1.72372C131.104 1.94531 131.224 2.21378 131.224 2.52912C131.224 2.8402 131.104 3.10866 130.866 3.33452C130.631 3.55611 130.348 3.6669 130.016 3.6669ZM135.444 9.17045V15H133.533V5.18182H135.367V6.77983H135.489C135.715 6.25994 136.068 5.84233 136.55 5.52699C137.036 5.21165 137.647 5.05398 138.384 5.05398C139.053 5.05398 139.639 5.1946 140.142 5.47585C140.645 5.75284 141.035 6.16619 141.312 6.71591C141.589 7.26562 141.727 7.94531 141.727 8.75497V15H139.816V8.98509C139.816 8.27344 139.631 7.71733 139.26 7.31676C138.889 6.91193 138.38 6.70952 137.732 6.70952C137.289 6.70952 136.895 6.8054 136.55 6.99716C136.209 7.18892 135.938 7.47017 135.738 7.84091C135.542 8.20739 135.444 8.65057 135.444 9.17045ZM148.522 15.1982C147.555 15.1982 146.722 14.9915 146.023 14.5781C145.328 14.1605 144.791 13.5746 144.412 12.8203C144.037 12.0618 143.85 11.1733 143.85 10.1548C143.85 9.14915 144.037 8.26278 144.412 7.49574C144.791 6.72869 145.32 6.12997 145.997 5.69957C146.679 5.26918 147.476 5.05398 148.388 5.05398C148.942 5.05398 149.479 5.1456 149.999 5.32884C150.519 5.51207 150.985 5.79972 151.399 6.19176C151.812 6.58381 152.138 7.09304 152.377 7.71946C152.615 8.34162 152.735 9.09801 152.735 9.98864V10.6662H144.93V9.23438H150.862C150.862 8.73153 150.759 8.28622 150.555 7.89844C150.35 7.50639 150.063 7.19744 149.692 6.97159C149.325 6.74574 148.895 6.63281 148.401 6.63281C147.864 6.63281 147.395 6.76491 146.994 7.02912C146.598 7.28906 146.291 7.62997 146.074 8.05185C145.861 8.46946 145.754 8.9233 145.754 9.41335V10.532C145.754 11.1882 145.869 11.7464 146.1 12.2067C146.334 12.6669 146.66 13.0185 147.078 13.2614C147.495 13.5 147.983 13.6193 148.541 13.6193C148.904 13.6193 149.234 13.5682 149.532 13.4659C149.83 13.3594 150.088 13.2017 150.306 12.9929C150.523 12.7841 150.689 12.5263 150.804 12.2195L152.613 12.5455C152.468 13.0781 152.208 13.5447 151.833 13.9453C151.463 14.3416 150.996 14.6506 150.433 14.8722C149.875 15.0895 149.238 15.1982 148.522 15.1982ZM154.855 15V5.18182H156.702V6.74148H156.805C156.984 6.21307 157.299 5.79758 157.751 5.49503C158.207 5.18821 158.722 5.0348 159.298 5.0348C159.417 5.0348 159.558 5.03906 159.719 5.04759C159.886 5.05611 160.016 5.06676 160.109 5.07955V6.90767C160.033 6.88636 159.896 6.86293 159.7 6.83736C159.504 6.80753 159.308 6.79261 159.112 6.79261C158.661 6.79261 158.258 6.88849 157.904 7.08026C157.555 7.26776 157.278 7.52983 157.073 7.86648C156.869 8.19886 156.766 8.57812 156.766 9.00426V15H154.855Z" fill="#BDBDBD"/>
</g>
<path d="M-0.692697 0H18.9747V19H-0.692697V0Z" fill="white"/>
<path d="M-1 14.9625C-1 14.8433 -0.900023 14.7468 -0.776694 14.7468H11.721C11.8443 14.7468 11.9443 14.8433 11.9443 14.9625C11.9443 15.0816 11.8443 15.1782 11.721 15.1782H-0.776695C-0.900023 15.1782 -1 15.0816 -1 14.9625Z" fill="black"/>
<path d="M15.1156 14.9625C15.1156 14.8433 15.2156 14.7468 15.3389 14.7468H18.905C19.0284 14.7468 19.1284 14.8433 19.1284 14.9625C19.1284 15.0816 19.0284 15.1782 18.905 15.1782H15.3389C15.2156 15.1782 15.1156 15.0816 15.1156 14.9625Z" fill="black"/>
<path d="M11.6979 15.1166C11.5753 15.0926 11.4967 14.9773 11.5222 14.859L12.1523 11.9407C12.1778 11.8224 12.2979 11.746 12.4204 11.77C12.543 11.794 12.6216 11.9093 12.5961 12.0276L11.966 14.9459C11.9405 15.0642 11.8204 15.1406 11.6979 15.1166Z" fill="black"/>
<path d="M13.714 17.1197C13.5849 17.2222 13.3882 17.1572 13.3503 16.9996L12.1695 12.0958C12.1406 11.9761 12.2204 11.8577 12.3455 11.8347C12.4647 11.8129 12.5809 11.886 12.6084 12L13.7897 16.9037C13.809 16.984 13.7797 17.0676 13.714 17.1197Z" fill="black"/>
<path d="M13.4464 17.0422C13.4173 16.9936 13.4119 16.9351 13.4316 16.8821L14.6932 13.4861C14.7329 13.3791 14.8545 13.322 14.9662 13.3578C15.081 13.3947 15.141 13.5153 15.0992 13.625L13.807 17.0105C13.7485 17.1637 13.5308 17.1829 13.4464 17.0422Z" fill="black"/>
<path d="M15.4299 15.0946C15.3317 15.1882 15.1645 15.1464 15.1248 15.0183L14.7164 13.7029C14.6781 13.5796 14.7651 13.4536 14.8978 13.4402C15.0041 13.4295 15.1028 13.496 15.129 13.5959L15.4783 14.9265C15.4942 14.987 15.4758 15.0509 15.4299 15.0946Z" fill="black"/>
<path d="M32.5957 7.41415C32.4838 7.07484 32.3333 6.77095 32.1442 6.50249C31.9589 6.23029 31.737 5.99911 31.4784 5.80895C31.2198 5.61506 30.9245 5.46777 30.5926 5.3671C30.2645 5.26642 29.9036 5.21609 29.5099 5.21609C28.8422 5.21609 28.2401 5.38201 27.7036 5.71387C27.1671 6.04572 26.7426 6.53232 26.4299 7.17365C26.1212 7.81126 25.9668 8.59242 25.9668 9.51713C25.9668 10.4456 26.1231 11.2305 26.4357 11.8718C26.7483 12.5131 27.1768 12.9997 27.721 13.3316C28.2652 13.6634 28.8847 13.8294 29.5794 13.8294C30.224 13.8294 30.7856 13.7026 31.2642 13.449C31.7466 13.1955 32.1191 12.8375 32.3815 12.3752C32.6479 11.9091 32.781 11.361 32.781 10.7308L33.2442 10.8147H29.8515V9.38849H34.5121V10.6917C34.5121 11.6537 34.2998 12.4889 33.8752 13.1974C33.4545 13.9021 32.8717 14.4465 32.1268 14.8305C31.3857 15.2146 30.5366 15.4066 29.5794 15.4066C28.5064 15.4066 27.5647 15.168 26.7541 14.6907C25.9475 14.2134 25.3183 13.5367 24.8668 12.6604C24.4152 11.7805 24.1894 10.7364 24.1894 9.52832C24.1894 8.61479 24.3206 7.79448 24.5831 7.06738C24.8455 6.34029 25.2141 5.72319 25.6889 5.21609C26.1675 4.70526 26.7291 4.31561 27.3736 4.04714C28.022 3.77495 28.7303 3.63885 29.4984 3.63885C30.1391 3.63885 30.7354 3.7302 31.2873 3.91291C31.8431 4.09561 32.3371 4.35476 32.7694 4.69034C33.2056 5.02592 33.5665 5.42489 33.8521 5.88725C34.1377 6.34588 34.3307 6.85485 34.431 7.41415H32.5957Z" fill="white"/>
<path d="M36.6441 15.25V6.65909H38.3172V8.02379H38.4098C38.572 7.56143 38.8576 7.19789 39.2667 6.93315C39.6797 6.66468 40.1467 6.53045 40.6678 6.53045C40.7758 6.53045 40.9032 6.53418 41.0499 6.54164C41.2004 6.54909 41.3181 6.55842 41.403 6.5696V8.16921C41.3335 8.15057 41.21 8.13006 41.0325 8.10769C40.8549 8.08159 40.6774 8.06854 40.4999 8.06854C40.0907 8.06854 39.726 8.15243 39.4056 8.32022C39.0892 8.48429 38.8383 8.7136 38.653 9.00817C38.4677 9.29901 38.3751 9.63086 38.3751 10.0037V15.25H36.6441Z" fill="white"/>
<path d="M42.9011 15.25V6.65909H44.6321V15.25H42.9011ZM43.7753 5.33354C43.4742 5.33354 43.2156 5.23659 42.9995 5.0427C42.7872 4.84508 42.6811 4.61017 42.6811 4.33798C42.6811 4.06206 42.7872 3.82715 42.9995 3.63326C43.2156 3.43564 43.4742 3.33683 43.7753 3.33683C44.0763 3.33683 44.333 3.43564 44.5453 3.63326C44.7614 3.82715 44.8695 4.06206 44.8695 4.33798C44.8695 4.61017 44.7614 4.84508 44.5453 5.0427C44.333 5.23659 44.0763 5.33354 43.7753 5.33354Z" fill="white"/>
<path d="M48.692 10.1491V15.25H46.9609V6.65909H48.6225V8.05735H48.7325C48.9371 7.60245 49.2574 7.23704 49.6936 6.96111C50.1336 6.68519 50.6874 6.54723 51.3552 6.54723C51.9611 6.54723 52.4918 6.67028 52.9473 6.91637C53.4027 7.15874 53.7559 7.52042 54.0068 8.00142C54.2576 8.48242 54.3831 9.07715 54.3831 9.7856V15.25H52.652V9.98695C52.652 9.36426 52.4841 8.87766 52.1483 8.52717C51.8125 8.17294 51.3513 7.99583 50.7646 7.99583C50.3632 7.99583 50.0062 8.07972 49.6936 8.24751C49.3848 8.4153 49.1397 8.6614 48.9583 8.9858C48.7808 9.30646 48.692 9.69425 48.692 10.1491Z" fill="white"/>
<path d="M60.0336 15.4178C59.3157 15.4178 58.675 15.2407 58.1115 14.8865C57.5519 14.5285 57.1119 14.0195 56.7915 13.3596C56.475 12.6958 56.3168 11.8998 56.3168 10.9713C56.3168 10.0429 56.4769 9.24867 56.7973 8.58869C57.1215 7.92871 57.5654 7.42347 58.1289 7.07298C58.6924 6.72248 59.3312 6.54723 60.0452 6.54723C60.5971 6.54723 61.041 6.63672 61.3768 6.8157C61.7164 6.99094 61.9789 7.19602 62.1642 7.43093C62.3533 7.66584 62.5 7.87278 62.6042 8.05176H62.7084V3.79545H64.4394V15.25H62.7489V13.9133H62.6042C62.5 14.096 62.3494 14.3048 62.1526 14.5397C61.9596 14.7746 61.6933 14.9797 61.3536 15.1549C61.014 15.3302 60.574 15.4178 60.0336 15.4178ZM60.4157 13.9916C60.9136 13.9916 61.3343 13.8648 61.6778 13.6112C62.0252 13.354 62.2877 12.9979 62.4652 12.543C62.6466 12.0881 62.7373 11.5586 62.7373 10.9545C62.7373 10.358 62.6486 9.83594 62.471 9.38849C62.2935 8.94105 62.0329 8.59242 61.6894 8.3426C61.3459 8.09277 60.9214 7.96786 60.4157 7.96786C59.8947 7.96786 59.4605 8.09837 59.1131 8.35938C58.7657 8.62038 58.5033 8.97647 58.3257 9.42765C58.152 9.87882 58.0652 10.3878 58.0652 10.9545C58.0652 11.5288 58.154 12.0452 58.3315 12.5038C58.5091 12.9624 58.7715 13.326 59.1189 13.5945C59.4701 13.8592 59.9024 13.9916 60.4157 13.9916Z" fill="white"/>
<path d="M73.5159 6.80451C73.4542 6.27504 73.1994 5.86488 72.7517 5.57404C72.304 5.27947 71.7405 5.13219 71.0612 5.13219C70.5749 5.13219 70.1542 5.20676 69.7991 5.35591C69.444 5.50133 69.168 5.70268 68.9712 5.95996C68.7782 6.21351 68.6817 6.50249 68.6817 6.82688C68.6817 7.09908 68.7473 7.33398 68.8785 7.5316C69.0136 7.72923 69.1892 7.89515 69.4054 8.02939C69.6254 8.15989 69.8608 8.26989 70.1117 8.35938C70.3626 8.44513 70.6038 8.51598 70.8354 8.57191L71.9933 8.86275C72.3715 8.95224 72.7594 9.07342 73.157 9.2263C73.5545 9.37917 73.9231 9.58052 74.2628 9.83034C74.6024 10.0802 74.8765 10.3896 75.0849 10.7588C75.2972 11.1279 75.4033 11.5698 75.4033 12.0843C75.4033 12.7331 75.2296 13.3092 74.8823 13.8126C74.5387 14.316 74.0389 14.7131 73.3828 15.0039C72.7305 15.2947 71.9412 15.4402 71.0149 15.4402C70.1271 15.4402 69.3591 15.3041 68.7106 15.0319C68.0622 14.7597 67.5547 14.3738 67.188 13.8741C66.8213 13.3707 66.6187 12.7741 66.5801 12.0843H68.3749C68.4096 12.4982 68.5485 12.8431 68.7917 13.1191C69.0387 13.3912 69.3533 13.5945 69.7354 13.7287C70.1214 13.8592 70.544 13.9244 71.0033 13.9244C71.5089 13.9244 71.9586 13.848 72.3522 13.6951C72.7498 13.5385 73.0624 13.3223 73.2901 13.0463C73.5179 12.7667 73.6317 12.4404 73.6317 12.0676C73.6317 11.7282 73.5314 11.4505 73.3307 11.2342C73.1338 11.0179 72.8656 10.839 72.5259 10.6973C72.1901 10.5556 71.81 10.4307 71.3854 10.3225L69.9843 9.95339C69.0349 9.70357 68.2822 9.33629 67.7264 8.85156C67.1745 8.36683 66.8985 7.7255 66.8985 6.92756C66.8985 6.26758 67.0838 5.69149 67.4543 5.19931C67.8249 4.70712 68.3266 4.32493 68.9596 4.05273C69.5926 3.77681 70.3066 3.63885 71.1017 3.63885C71.9045 3.63885 72.6128 3.77495 73.2265 4.04714C73.844 4.31934 74.3303 4.69407 74.6854 5.17134C75.0405 5.64489 75.2258 6.18928 75.2412 6.80451H73.5159Z" fill="white"/>
<path d="M79.99 15.4402C79.4265 15.4402 78.917 15.3395 78.4616 15.1381C78.0062 14.9331 77.6453 14.6366 77.379 14.2488C77.1165 13.8611 76.9853 13.3857 76.9853 12.8226C76.9853 12.3379 77.0818 11.9389 77.2748 11.6257C77.4677 11.3125 77.7283 11.0645 78.0564 10.8818C78.3844 10.6991 78.7511 10.5612 79.1563 10.468C79.5616 10.3747 79.9746 10.3039 80.3953 10.2554C80.9279 10.1958 81.3602 10.1473 81.6922 10.11C82.0241 10.069 82.2653 10.0037 82.4158 9.91424C82.5664 9.82475 82.6416 9.67933 82.6416 9.47798V9.43883C82.6416 8.95037 82.4988 8.57191 82.2132 8.30344C81.9314 8.03498 81.5107 7.90075 80.9511 7.90075C80.3683 7.90075 79.909 8.02566 79.5732 8.27548C79.2413 8.52157 79.0116 8.79563 78.8842 9.09766L77.2574 8.7397C77.4504 8.21768 77.7321 7.79634 78.1027 7.47567C78.4771 7.15128 78.9074 6.91637 79.3937 6.77095C79.88 6.6218 80.3914 6.54723 80.9279 6.54723C81.283 6.54723 81.6593 6.58825 82.0569 6.67028C82.4583 6.74858 82.8327 6.894 83.1801 7.10653C83.5313 7.31907 83.8188 7.62296 84.0427 8.0182C84.2665 8.40971 84.3785 8.91868 84.3785 9.5451V15.25H82.688V14.0755H82.6185C82.5065 14.2917 82.3387 14.5043 82.1148 14.7131C81.8909 14.9219 81.6034 15.0953 81.2522 15.2332C80.9009 15.3712 80.4802 15.4402 79.99 15.4402ZM80.3664 14.0978C80.845 14.0978 81.2541 14.0065 81.5937 13.8238C81.9372 13.6411 82.1978 13.4024 82.3753 13.1079C82.5567 12.8096 82.6474 12.4908 82.6474 12.1515V11.044C82.5857 11.1037 82.466 11.1596 82.2885 11.2118C82.1148 11.2603 81.916 11.3032 81.6922 11.3405C81.4683 11.374 81.2502 11.4057 81.0379 11.4355C80.8257 11.4616 80.6481 11.484 80.5053 11.5027C80.1695 11.5437 79.8627 11.6127 79.5848 11.7096C79.3107 11.8066 79.0907 11.9464 78.9248 12.1291C78.7627 12.3081 78.6816 12.5467 78.6816 12.845C78.6816 13.2589 78.8399 13.5721 79.1563 13.7846C79.4728 13.9934 79.8762 14.0978 80.3664 14.0978Z" fill="white"/>
<path d="M90.9163 6.65909V8.00142H85.891V6.65909H90.9163ZM87.2689 15.25V5.66353C87.2689 5.1266 87.3905 4.68102 87.6336 4.32679C87.8768 3.96884 88.1991 3.70224 88.6005 3.52699C89.0019 3.34801 89.438 3.25852 89.9089 3.25852C90.2563 3.25852 90.5535 3.28649 90.8005 3.34242C91.0475 3.39462 91.2308 3.44309 91.3505 3.48784L90.9452 4.84135C90.8642 4.81898 90.76 4.79288 90.6326 4.76305C90.5052 4.72949 90.3508 4.71271 90.1694 4.71271C89.7487 4.71271 89.4477 4.81339 89.2663 5.01474C89.0887 5.21609 88.9999 5.50692 88.9999 5.88725V15.25H87.2689Z" fill="white"/>
<path d="M96.1847 15.4234C95.3086 15.4234 94.554 15.2425 93.921 14.8809C93.2919 14.5154 92.8056 14.0028 92.4621 13.3428C92.1224 12.6791 91.9526 11.9016 91.9526 11.0105C91.9526 10.1305 92.1224 9.35494 92.4621 8.68377C92.8056 8.01261 93.2842 7.48873 93.8979 7.11213C94.5154 6.73553 95.2372 6.54723 96.0631 6.54723C96.5649 6.54723 97.0512 6.6274 97.5221 6.78773C97.993 6.94806 98.4156 7.19975 98.79 7.54279C99.1644 7.88583 99.4596 8.33141 99.6758 8.87953C99.8919 9.42392 100 10.0858 100 10.8651V11.4579H92.931V10.2051H98.3037C98.3037 9.76509 98.211 9.37544 98.0258 9.03613C97.8405 8.69309 97.58 8.42276 97.2442 8.22514C96.9123 8.02752 96.5224 7.92871 96.0747 7.92871C95.5884 7.92871 95.1638 8.0443 94.801 8.27548C94.4421 8.50293 94.1642 8.80122 93.9673 9.17037C93.7744 9.53578 93.6779 9.93288 93.6779 10.3617V11.3405C93.6779 11.9147 93.7821 12.4031 93.9905 12.8058C94.2028 13.2085 94.498 13.5162 94.8763 13.7287C95.2545 13.9375 95.6965 14.0419 96.2021 14.0419C96.5302 14.0419 96.8293 13.9972 97.0995 13.9077C97.3696 13.8145 97.6031 13.6765 97.8 13.4938C97.9968 13.3111 98.1474 13.0855 98.2516 12.817L99.89 13.1023C99.7588 13.5684 99.5233 13.9767 99.1837 14.3271C98.8479 14.6739 98.4253 14.9442 97.9158 15.1381C97.4102 15.3283 96.8331 15.4234 96.1847 15.4234Z" fill="white"/>
</g>
<defs>
<clipPath id="clip0_248_17">
<rect width="161" height="19" fill="white"/>
</clipPath>
<clipPath id="clip1_248_17">
<rect width="243" height="19" fill="white"/>
</clipPath>
</defs>
</svg>
